<svg width="245" height="164" viewBox="0 0 245 164" fill="none" xmlns="http://www.w3.org/2000/svg">
<path d="M0.9 67L8.785 13.135H6.79L8.12 0.499995H30.255L40.04 67H27.215L25.79 57.5H15.15L13.725 67H0.9ZM16.955 44.865H23.985L20.47 21.115L16.955 44.865ZM48.2894 67V41.445L37.1744 0.499995H49.9994L54.7494 23.015L59.4044 0.499995H72.2294L61.1144 41.445V67H48.2894ZM107.123 53.795C107.123 58.6083 106.046 62.0917 103.893 64.245C101.803 66.335 98.3193 67.38 93.4426 67.38H89.2626C84.386 67.38 80.871 66.335 78.7176 64.245C76.6276 62.0917 75.5826 58.6083 75.5826 53.795V13.705C75.5826 8.82833 76.6276 5.345 78.7176 3.255C80.871 1.165 84.386 0.119995 89.2626 0.119995H93.4426C98.3193 0.119995 101.803 1.165 103.893 3.255C106.046 5.345 107.123 8.82833 107.123 13.705V53.795ZM88.9776 12.755C88.661 12.755 88.5026 12.9133 88.5026 13.23V54.27C88.5026 54.5867 88.661 54.745 88.9776 54.745H93.7276C94.0443 54.745 94.2026 54.5867 94.2026 54.27V13.23C94.2026 12.9133 94.0443 12.755 93.7276 12.755H88.9776ZM145.213 53.795C145.213 58.6083 144.136 62.0917 141.983 64.245C139.893 66.335 136.41 67.38 131.533 67.38H126.403C121.526 67.38 118.011 66.335 115.858 64.245C113.768 62.0917 112.723 58.6083 112.723 53.795V13.135H110.918L112.248 0.499995H125.643V54.27C125.643 54.5867 125.801 54.745 126.118 54.745H131.818C132.135 54.745 132.293 54.5867 132.293 54.27V0.499995H145.213V53.795ZM149.833 67V13.135H148.028L149.358 0.499995H167.503C172.379 0.499995 175.863 1.57666 177.953 3.73C180.106 5.82 181.183 9.27166 181.183 14.085V26.53C181.183 28.43 181.024 30.1083 180.708 31.565C182.291 33.655 183.083 36.8217 183.083 41.065V53.415C183.083 58.2283 182.006 61.7117 179.853 63.865C177.763 65.955 174.279 67 169.403 67H149.833ZM167.788 27.48C168.104 27.48 168.263 27.3217 168.263 27.005V13.61C168.263 13.2933 168.104 13.135 167.788 13.135H162.753V27.48H167.788ZM170.163 40.59C170.163 40.2733 170.004 40.115 169.688 40.115H162.753V54.365H169.688C170.004 54.365 170.163 54.2067 170.163 53.89V40.59Z" fill="url(#paint0_linear_101_11)"/>
<path d="M0.9 163L8.785 109.135H6.79L8.12 96.5H30.255L40.04 163H27.215L25.79 153.5H15.15L13.725 163H0.9ZM16.955 140.865H23.985L20.47 117.115L16.955 140.865ZM44.7314 163V109.135H42.9264L44.2564 96.5H57.6514L68.4814 132.6V96.5H81.4014V163H68.4814L57.6514 126.9V163H44.7314ZM113.921 149.795C113.921 154.608 112.844 158.092 110.691 160.245C108.601 162.335 105.118 163.38 100.241 163.38H98.9111C94.0344 163.38 90.5194 162.335 88.3661 160.245C86.2761 158.092 85.2311 154.608 85.2311 149.795V135.45H98.1511V150.27C98.1511 150.587 98.3094 150.745 98.6261 150.745H100.526C100.843 150.745 101.001 150.587 101.001 150.27V109.135H92.4511L93.7811 96.5H113.921V149.795ZM117.702 163L125.587 109.135H123.592L124.922 96.5H147.057L156.842 163H144.017L142.592 153.5H131.952L130.527 163H117.702ZM133.757 140.865H140.787L137.272 117.115L133.757 140.865ZM162.461 163V109.135H160.656L161.986 96.5H175.381V163H162.461ZM181.016 163V109.135H179.211L180.541 96.5H189.471L198.876 96.405L203.436 132.315L208.091 96.5H225.951V163H213.031V123.29L207.996 153.5H198.971L193.936 123.29V163H181.016ZM231.577 163V109.135H229.772L231.102 96.5H244.497V163H231.577Z" fill="white"/>
<defs>
<linearGradient id="paint0_linear_101_11" x1="-25.7864" y1="-15" x2="257.329" y2="-15" gradientUnits="userSpaceOnUse">
<stop stop-color="#FF57F7"/>
<stop offset="0.21" stop-color="#C43BF0"/>
<stop offset="0.375" stop-color="#B739EE"/>
<stop offset="0.655" stop-color="#48A0E4"/>
</linearGradient>
</defs>
</svg>
